<?xml version="1.0" encoding="UTF-8" standalone="no"?>
<svg
   version="1.0"
   width="2000.000000pt"
   height="2000.000000pt"
   viewBox="0 0 2000.000000 2000.000000"
   preserveAspectRatio="xMidYMid meet"
   id="svg7"
   sodipodi:docname="favicon.svg"
   inkscape:version="1.4.2 (ebf0e940d0, 2025-05-08)"
   xmlns:inkscape="http://www.inkscape.org/namespaces/inkscape"
   xmlns:sodipodi="http://sodipodi.sourceforge.net/DTD/sodipodi-0.dtd"
   xmlns="http://www.w3.org/2000/svg"
   xmlns:svg="http://www.w3.org/2000/svg">
  <defs
     id="defs7" />
  <style
     id="style1">
        path {
            fill: black;
        }
        @media (prefers-color-scheme: dark) {
            path { fill: white; }
        }
    </style>
  <sodipodi:namedview
     id="namedview7"
     pagecolor="#6d6d6d"
     bordercolor="#000000"
     borderopacity="0.68235294"
     inkscape:showpageshadow="2"
     inkscape:pageopacity="0.0"
     inkscape:pagecheckerboard="true"
     inkscape:deskcolor="#d1d1d1"
     inkscape:document-units="pt"
     inkscape:zoom="0.36738782"
     inkscape:cx="1464.3926"
     inkscape:cy="1388.1788"
     inkscape:window-width="2998"
     inkscape:window-height="1966"
     inkscape:window-x="0"
     inkscape:window-y="32"
     inkscape:window-maximized="1"
     inkscape:current-layer="svg7"
     showborder="true"
     labelstyle="default" />
  <metadata
     id="metadata1">
Created by potrace 1.16, written by Peter Selinger 2001-2019
</metadata>
  <g
     transform="matrix(0.34805464,0,0,-0.34805464,-2409.47,5298.4864)"
     fill="#000000"
     stroke="none"
     id="g7">
    <path
       d="m 7165,14755 c -51,-18 -101,-72 -115,-125 -9,-35 -7,-57 18,-158 16,-64 269,-1069 561,-2232 407,-1616 539,-2124 558,-2153 28,-44 89,-76 144,-77 88,0 169,80 169,170 0,25 -68,312 -154,653 -84,334 -151,609 -147,611 10,6 289,74 371,90 194,39 665,105 675,94 2,-2 76,-178 166,-392 179,-424 190,-444 272,-464 37,-10 57,-9 118,8 113,29 354,78 496,99 252,39 419,53 723,58 431,8 691,-12 1125,-84 156,-26 232,-34 260,-29 77,15 146,119 129,193 -22,95 -733,2180 -762,2237 -130,249 -431,391 -932,437 -116,10 -680,8 -764,-3 -17,-3 -28,18 -70,122 -63,155 -92,205 -160,274 -130,134 -329,217 -626,263 -88,13 -177,17 -380,17 -345,0 -590,-24 -1073,-104 -131,-22 -246,-40 -256,-40 -15,0 -24,20 -47,113 -64,258 -91,348 -115,373 -49,52 -120,71 -184,49 z m 1946,-745 c 195,-19 333,-57 421,-117 89,-59 93,-66 213,-378 23,-60 169,-433 324,-829 155,-395 280,-720 278,-722 -2,-3 -88,2 -191,11 -246,20 -735,20 -966,0 -318,-28 -593,-72 -907,-147 -95,-23 -174,-40 -176,-37 -6,6 -528,2081 -525,2084 6,5 470,76 613,94 83,11 213,24 290,30 77,6 158,13 180,14 98,8 352,6 446,-3 z m 1753,-675 c 171,-18 323,-54 421,-99 76,-35 157,-101 181,-148 18,-34 634,-1861 630,-1866 -2,-2 -55,4 -117,13 -479,66 -1057,73 -1518,19 -68,-8 -126,-13 -128,-11 -2,2 96,93 218,203 228,204 249,229 249,299 0,23 -107,309 -304,813 l -305,777 37,6 c 77,13 498,9 636,-6 z m -687,-1711 41,-6 -210,-190 c -116,-104 -214,-185 -218,-181 -4,4 -29,60 -55,123 -26,63 -63,151 -82,194 l -34,79 258,-6 c 142,-4 277,-9 300,-13 z"
       id="path1"
       style="fill:#000000;fill-opacity:1" />
  </g>
</svg>
